<svg width="26" height="25" viewBox="0 0 26 25" fill="none" xmlns="http://www.w3.org/2000/svg">
<g id="settings">
<path id="Vector" d="M20.589 13.127C20.6312 12.807 20.6628 12.487 20.6628 12.147C20.6628 11.807 20.6312 11.487 20.589 11.167L22.8119 9.51697C23.0121 9.36697 23.0648 9.09697 22.9383 8.87697L20.8313 5.41697C20.7365 5.25697 20.5574 5.16697 20.3678 5.16697C20.3046 5.16697 20.2414 5.17697 20.1887 5.19697L17.5655 6.19697C17.0177 5.79697 16.4277 5.46697 15.7851 5.21697L15.3848 2.56697C15.3532 2.32697 15.1319 2.14697 14.8685 2.14697H10.6546C10.3912 2.14697 10.1699 2.32697 10.1383 2.56697L9.73801 5.21697C9.09538 5.46697 8.50542 5.80697 7.9576 6.19697L5.33439 5.19697C5.27118 5.17697 5.20797 5.16697 5.14476 5.16697C4.96567 5.16697 4.78657 5.25697 4.69176 5.41697L2.58476 8.87697C2.4478 9.09697 2.51101 9.36697 2.71118 9.51697L4.93406 11.167C4.89192 11.487 4.86032 11.817 4.86032 12.147C4.86032 12.477 4.89192 12.807 4.93406 13.127L2.71118 14.777C2.51101 14.927 2.45834 15.197 2.58476 15.417L4.69176 18.877C4.78657 19.037 4.96567 19.127 5.15529 19.127C5.2185 19.127 5.28171 19.117 5.33439 19.097L7.9576 18.097C8.50542 18.497 9.09538 18.827 9.73801 19.077L10.1383 21.727C10.1699 21.967 10.3912 22.147 10.6546 22.147H14.8685C15.1319 22.147 15.3532 21.967 15.3848 21.727L15.7851 19.077C16.4277 18.827 17.0177 18.487 17.5655 18.097L20.1887 19.097C20.2519 19.117 20.3151 19.127 20.3783 19.127C20.5574 19.127 20.7365 19.037 20.8313 18.877L22.9383 15.417C23.0648 15.197 23.0121 14.927 22.8119 14.777L20.589 13.127ZM18.5031 11.417C18.5453 11.727 18.5558 11.937 18.5558 12.147C18.5558 12.357 18.5347 12.577 18.5031 12.877L18.3556 14.007L19.2932 14.707L20.431 15.547L19.6936 16.757L18.3556 16.247L17.26 15.827L16.3118 16.507C15.8588 16.827 15.4269 17.067 14.995 17.237L13.8783 17.667L13.7097 18.797L13.499 20.147H12.0241L11.6554 17.667L10.5387 17.237C10.0857 17.057 9.66427 16.827 9.24287 16.527L8.28418 15.827L7.16748 16.257L5.82953 16.767L5.09208 15.557L6.22986 14.717L7.16748 14.017L7.01999 12.887C6.98838 12.577 6.96731 12.347 6.96731 12.147C6.96731 11.947 6.98838 11.717 7.01999 11.417L7.16748 10.287L6.22986 9.58697L5.09208 8.74697L5.82953 7.53697L7.16748 8.04697L8.26311 8.46697L9.21126 7.78697C9.66427 7.46697 10.0962 7.22697 10.5281 7.05697L11.6448 6.62697L11.8134 5.49697L12.0241 4.14697H13.4885L13.8572 6.62697L14.9739 7.05697C15.4269 7.23697 15.8483 7.46697 16.2697 7.76697L17.2284 8.46697L18.3451 8.03697L19.683 7.52697L20.4205 8.73697L19.2932 9.58697L18.3556 10.287L18.5031 11.417ZM12.7616 8.14697C10.4333 8.14697 8.54756 9.93697 8.54756 12.147C8.54756 14.357 10.4333 16.147 12.7616 16.147C15.0898 16.147 16.9755 14.357 16.9755 12.147C16.9755 9.93697 15.0898 8.14697 12.7616 8.14697ZM12.7616 14.147C11.6027 14.147 10.6546 13.247 10.6546 12.147C10.6546 11.047 11.6027 10.147 12.7616 10.147C13.9204 10.147 14.8685 11.047 14.8685 12.147C14.8685 13.247 13.9204 14.147 12.7616 14.147Z" fill="white"/>
</g>
</svg>
