<svg width="250" height="52" viewBox="0 0 250 52" fill="none" xmlns="http://www.w3.org/2000/svg">
<g clip-path="url(#clip0_2151_1006)">
<path d="M25.3392 49.6378C38.467 49.6378 49.1091 38.9956 49.1091 25.8679C49.1091 12.7401 38.467 2.09796 25.3392 2.09796C12.2115 2.09796 1.56934 12.7401 1.56934 25.8679C1.56934 38.9956 12.2115 49.6378 25.3392 49.6378Z" stroke="white" stroke-width="4" stroke-linecap="round" stroke-linejoin="round"/>
<path d="M13.8154 16.9031H36.9194C36.9194 16.9031 35.7103 40.0128 25.3674 40.0613C15.0246 40.1098 13.8154 16.9031 13.8154 16.9031Z" stroke="white" stroke-width="4" stroke-miterlimit="10"/>
<path d="M48.2289 2.07098C48.2289 2.07098 48.2822 7.00552 48.2289 11.8211C48.1756 16.6368 42.2935 16.6368 42.2935 16.6368H10.6895" stroke="white" stroke-width="3.13938" stroke-linecap="round" stroke-linejoin="round"/>
<path d="M2.50708 2.07098C2.50708 2.07098 2.4538 7.00552 2.50708 11.8211C2.56035 16.6368 8.44241 16.6368 8.44241 16.6368H40.0465" stroke="white" stroke-width="3.13938" stroke-linecap="round" stroke-linejoin="round"/>
</g>
<g clip-path="url(#clip1_2151_1006)">
<path d="M64.669 41.3683C64.2421 41.3683 63.8754 41.2151 63.569 40.9086C63.2626 40.6022 63.1094 40.2356 63.1094 39.8087V11.6977C63.1094 11.245 63.2557 10.8714 63.5501 10.5788C63.8444 10.2862 64.2163 10.1398 64.669 10.1398H83.424C83.8767 10.1398 84.2502 10.2793 84.5429 10.5599C84.8355 10.8405 84.9836 11.2071 84.9836 11.6599C84.9836 12.0592 84.8372 12.407 84.5429 12.6996C84.2485 12.9922 83.8767 13.1403 83.424 13.1403H66.2286V24.1764H78.7451C79.1978 24.1764 79.5714 24.3227 79.864 24.6153C80.1567 24.9097 80.3047 25.2695 80.3047 25.6947C80.3047 26.1199 80.1584 26.4814 79.864 26.774C79.5697 27.0666 79.1978 27.2147 78.7451 27.2147H66.2286V39.8104C66.2286 40.2373 66.0823 40.604 65.7879 40.9104C65.4936 41.2168 65.1217 41.37 64.669 41.37V41.3683Z" fill="white" stroke="white" stroke-width="0.860714" stroke-miterlimit="10"/>
<path d="M96.1382 41.5681C93.9795 41.5681 92.0653 41.0947 90.4006 40.1479C88.7343 39.2011 87.4277 37.8894 86.4827 36.2093C85.5359 34.5292 85.0625 32.6098 85.0625 30.4511C85.0625 28.2924 85.5083 26.3386 86.4018 24.6723C87.2952 23.0059 88.5277 21.6925 90.1011 20.7336C91.6745 19.7731 93.4872 19.2945 95.5391 19.2945C97.5911 19.2945 99.3314 19.7541 100.838 20.6734C102.344 21.5926 103.509 22.8665 104.337 24.4915C105.164 26.1183 105.577 27.9705 105.577 30.05C105.577 30.4769 105.442 30.816 105.177 31.0691C104.911 31.3221 104.565 31.4495 104.138 31.4495H87.1437V28.8898H104.458L102.738 30.1292C102.764 28.5834 102.485 27.1976 101.898 25.9702C101.311 24.7446 100.478 23.784 99.3986 23.0903C98.3192 22.3965 97.0316 22.0505 95.5391 22.0505C94.0466 22.0505 92.6867 22.4103 91.5402 23.1299C90.3938 23.8494 89.5072 24.8427 88.8806 26.1097C88.254 27.3766 87.9407 28.8226 87.9407 30.4477C87.9407 32.0727 88.2936 33.5135 89.0011 34.7667C89.7069 36.0199 90.6744 37.0063 91.9 37.7259C93.1257 38.4454 94.539 38.8052 96.1382 38.8052C97.0987 38.8052 98.0645 38.6399 99.0371 38.306C100.01 37.9737 100.789 37.5537 101.376 37.0459C101.669 36.8066 102.003 36.6792 102.377 36.6655C102.75 36.6517 103.07 36.7515 103.337 36.965C103.683 37.2852 103.864 37.6312 103.878 38.0047C103.891 38.3783 103.738 38.6985 103.418 38.9653C102.538 39.7124 101.42 40.3321 100.06 40.8244C98.6997 41.3185 97.3931 41.5646 96.1399 41.5646L96.1382 41.5681Z" fill="white" stroke="white" stroke-width="0.860714" stroke-miterlimit="10"/>
<path d="M120.691 41.5681C118.532 41.5681 116.618 41.0947 114.953 40.1479C113.287 39.2011 111.98 37.8894 111.035 36.2092C110.089 34.5291 109.615 32.6097 109.615 30.4511C109.615 28.2924 110.061 26.3386 110.955 24.6722C111.848 23.0059 113.08 21.6924 114.654 20.7336C116.227 19.7731 118.04 19.2945 120.092 19.2945C122.144 19.2945 123.884 19.7541 125.39 20.6734C126.897 21.5926 128.062 22.8665 128.89 24.4915C129.716 26.1182 130.129 27.9705 130.129 30.05C130.129 30.4769 129.995 30.816 129.73 31.0691C129.463 31.3221 129.117 31.4495 128.69 31.4495H111.696V28.8897H129.011L127.291 30.1292C127.317 28.5833 127.038 27.1976 126.451 25.9702C125.864 24.7445 125.031 23.784 123.951 23.0902C122.872 22.3965 121.584 22.0505 120.092 22.0505C118.599 22.0505 117.239 22.4103 116.093 23.1298C114.947 23.8494 114.06 24.8427 113.433 26.1096C112.807 27.3766 112.493 28.8226 112.493 30.4476C112.493 32.0727 112.846 33.5135 113.554 34.7667C114.26 36.0199 115.227 37.0063 116.453 37.7258C117.678 38.4454 119.092 38.8052 120.691 38.8052C121.651 38.8052 122.617 38.6399 123.59 38.306C124.562 37.9737 125.342 37.5537 125.929 37.0459C126.222 36.8066 126.556 36.6792 126.929 36.6654C127.303 36.6517 127.623 36.7515 127.89 36.965C128.236 37.2851 128.417 37.6312 128.43 38.0047C128.444 38.3783 128.291 38.6984 127.971 38.9653C127.091 39.7124 125.972 40.3321 124.612 40.8244C123.252 41.3184 121.946 41.5646 120.693 41.5646L120.691 41.5681Z" fill="white" stroke="white" stroke-width="0.860714" stroke-miterlimit="10"/>
<path d="M145.284 41.568C143.177 41.568 141.285 41.0826 139.605 40.1083C137.925 39.1357 136.599 37.8084 135.627 36.13C134.654 34.4499 134.167 32.5443 134.167 30.4114C134.167 28.2786 134.64 26.4126 135.587 24.7325C136.534 23.0523 137.82 21.7268 139.447 20.7542C141.072 19.7816 142.912 19.2945 144.966 19.2945C146.751 19.2945 148.365 19.6749 149.804 20.434C151.244 21.1932 152.404 22.2002 153.283 23.4534V11.6978C153.283 11.2175 153.43 10.8388 153.724 10.5582C154.017 10.2776 154.39 10.1382 154.843 10.1382C155.296 10.1382 155.669 10.2776 155.962 10.5582C156.255 10.8388 156.403 11.2175 156.403 11.6978V30.5715C156.349 32.651 155.836 34.5239 154.864 36.1903C153.889 37.8566 152.571 39.1701 150.904 40.1289C149.238 41.0895 147.365 41.568 145.286 41.568H145.284ZM145.284 38.769C146.83 38.769 148.209 38.4023 149.422 37.669C150.634 36.9357 151.595 35.9441 152.301 34.6892C153.006 33.436 153.361 32.0107 153.361 30.4097C153.361 28.8088 153.008 27.4179 152.301 26.1509C151.595 24.8857 150.634 23.8924 149.422 23.1711C148.209 22.4516 146.83 22.0918 145.284 22.0918C143.738 22.0918 142.392 22.4516 141.165 23.1711C139.939 23.8907 138.965 24.8839 138.245 26.1509C137.525 27.4179 137.166 28.8363 137.166 30.4097C137.166 31.9831 137.525 33.436 138.245 34.6892C138.965 35.9424 139.937 36.9357 141.165 37.669C142.39 38.4023 143.764 38.769 145.284 38.769Z" fill="white" stroke="white" stroke-width="0.860714" stroke-miterlimit="10"/>
<path d="M169.875 41.3684C169.502 41.3684 169.175 41.2479 168.896 41.0087C168.617 40.7694 168.423 40.463 168.316 40.0894L160.118 12.3779C159.933 11.7375 159.965 11.2056 160.218 10.7786C160.471 10.3517 160.878 10.1383 161.437 10.1383C161.757 10.1383 162.057 10.2243 162.337 10.3982C162.618 10.5721 162.823 10.8854 162.957 11.3381L170.354 37.0907H169.435L176.432 12.0181C176.512 11.7254 176.692 11.4844 176.973 11.2985C177.254 11.1126 177.567 11.0179 177.913 11.0179C178.233 11.0179 178.539 11.104 178.832 11.2779C179.125 11.4517 179.312 11.7117 179.392 12.0577L186.429 37.0907H185.51L192.948 11.178C193.134 10.486 193.642 10.1383 194.468 10.1383C195.027 10.1383 195.415 10.3586 195.628 10.7976C195.842 11.2365 195.867 11.7633 195.707 12.3779L187.549 40.0498C187.415 40.4767 187.21 40.8038 186.93 41.0293C186.649 41.2565 186.324 41.3684 185.95 41.3684C185.577 41.3684 185.25 41.2479 184.971 41.0087C184.692 40.7694 184.497 40.463 184.391 40.0894L177.433 14.6966H178.393L171.475 40.0481C171.34 40.4475 171.136 40.7677 170.855 41.0087C170.574 41.2497 170.249 41.3684 169.875 41.3684Z" fill="white" stroke="white" stroke-width="0.860714" stroke-miterlimit="10"/>
<path d="M200.865 15.3369C200.278 15.3369 199.772 15.1235 199.345 14.6966C198.919 14.2697 198.705 13.7498 198.705 13.137C198.705 12.4708 198.925 11.944 199.364 11.5567C199.805 11.1711 200.318 10.9766 200.903 10.9766C201.489 10.9766 201.964 11.1694 202.403 11.5567C202.843 11.944 203.062 12.4708 203.062 13.137C203.062 13.7498 202.849 14.2697 202.422 14.6966C201.995 15.1235 201.475 15.3369 200.862 15.3369H200.865ZM200.907 41.3684C200.427 41.3684 200.048 41.2289 199.767 40.9484C199.487 40.6678 199.347 40.289 199.347 39.8088V21.0538C199.347 20.5735 199.487 20.1948 199.767 19.9142C200.048 19.6336 200.427 19.4942 200.907 19.4942C201.36 19.4942 201.726 19.6336 202.007 19.9142C202.287 20.1948 202.427 20.5735 202.427 21.0538V39.8088C202.427 40.289 202.287 40.6678 202.007 40.9484C201.726 41.2289 201.36 41.3684 200.907 41.3684Z" fill="white" stroke="white" stroke-width="0.860714" stroke-miterlimit="10"/>
<path d="M217.1 41.568C215.527 41.568 213.967 41.3012 212.421 40.7676C210.875 40.2339 209.622 39.4352 208.663 38.3679C208.369 38.0477 208.25 37.6879 208.303 37.2886C208.357 36.8892 208.556 36.5432 208.902 36.2488C209.276 35.982 209.662 35.8753 210.063 35.9286C210.462 35.982 210.796 36.1558 211.063 36.4485C211.703 37.1956 212.548 37.7688 213.602 38.1682C214.655 38.5676 215.821 38.7673 217.102 38.7673C219.074 38.7673 220.501 38.4281 221.381 37.7482C222.261 37.0682 222.713 36.2488 222.741 35.2883C222.741 34.3277 222.288 33.5358 221.381 32.9092C220.474 32.2826 218.981 31.7972 216.902 31.4495C214.21 31.0226 212.237 30.2772 210.984 29.2099C209.73 28.1443 209.104 26.8774 209.104 25.4107C209.104 24.0508 209.464 22.9181 210.183 22.0109C210.903 21.1054 211.863 20.4254 213.061 19.971C214.261 19.5182 215.58 19.291 217.021 19.291C218.806 19.291 220.347 19.5974 221.639 20.2103C222.932 20.8231 223.979 21.6494 224.779 22.6891C225.046 23.0351 225.153 23.3949 225.099 23.7685C225.046 24.142 224.833 24.4484 224.459 24.6877C224.139 24.8736 223.772 24.9339 223.359 24.8667C222.946 24.8013 222.593 24.6068 222.299 24.2866C221.632 23.5137 220.86 22.9473 219.98 22.5876C219.1 22.2278 218.086 22.047 216.942 22.047C215.475 22.047 214.303 22.3466 213.423 22.9473C212.543 23.5481 212.103 24.3004 212.103 25.2058C212.103 25.8187 212.27 26.3523 212.602 26.8051C212.934 27.2578 213.507 27.6589 214.322 28.0049C215.134 28.3509 216.274 28.6453 217.74 28.8845C219.739 29.2047 221.319 29.6781 222.479 30.3047C223.64 30.9313 224.466 31.6646 224.958 32.5047C225.451 33.3448 225.698 34.2571 225.698 35.2435C225.698 36.4967 225.332 37.5967 224.598 38.5417C223.865 39.4885 222.853 40.2288 221.56 40.7607C220.267 41.2943 218.782 41.5611 217.102 41.5611L217.1 41.568Z" fill="white" stroke="white" stroke-width="0.860714" stroke-miterlimit="10"/>
<path d="M240.132 41.5681C237.974 41.5681 236.059 41.0947 234.395 40.1479C232.728 39.2011 231.422 37.8894 230.477 36.2092C229.53 34.5291 229.057 32.6097 229.057 30.4511C229.057 28.2924 229.502 26.3386 230.396 24.6722C231.289 23.0059 232.522 21.6924 234.095 20.7336C235.669 19.7731 237.481 19.2945 239.533 19.2945C241.585 19.2945 243.326 19.7541 244.832 20.6734C246.338 21.5926 247.503 22.8665 248.331 24.4915C249.158 26.1182 249.571 27.9705 249.571 30.05C249.571 30.4769 249.437 30.816 249.172 31.0691C248.905 31.3221 248.559 31.4495 248.132 31.4495H231.138V28.8897H248.452L246.732 30.1292C246.758 28.5833 246.479 27.1976 245.892 25.9702C245.305 24.7445 244.472 23.784 243.393 23.0902C242.313 22.3965 241.026 22.0505 239.533 22.0505C238.041 22.0505 236.681 22.4103 235.534 23.1298C234.388 23.8494 233.501 24.8427 232.875 26.1096C232.248 27.3766 231.935 28.8226 231.935 30.4476C231.935 32.0727 232.288 33.5135 232.995 34.7667C233.701 36.0199 234.668 37.0063 235.894 37.7258C237.12 38.4454 238.533 38.8052 240.132 38.8052C241.093 38.8052 242.059 38.6399 243.031 38.306C244.004 37.9737 244.784 37.5537 245.371 37.0459C245.663 36.8066 245.997 36.6792 246.371 36.6654C246.744 36.6517 247.065 36.7515 247.331 36.965C247.677 37.2851 247.858 37.6312 247.872 38.0047C247.886 38.3783 247.732 38.6984 247.412 38.9653C246.533 39.7124 245.414 40.3321 244.054 40.8244C242.694 41.3184 241.387 41.5646 240.134 41.5646L240.132 41.5681Z" fill="white" stroke="white" stroke-width="0.860714" stroke-miterlimit="10"/>
</g>
<defs>
<clipPath id="clip0_2151_1006">
<rect width="50.6792" height="50.7058" fill="white" transform="translate(0 0.501221)"/>
</clipPath>
<clipPath id="clip1_2151_1006">
<rect width="187.321" height="32.2906" fill="white" transform="translate(62.6787 9.70776)"/>
</clipPath>
</defs>
</svg>
