<svg width="190" height="40" viewBox="0 0 190 40" fill="none" xmlns="http://www.w3.org/2000/svg">
<g clip-path="url(#clip0_2217_16099)">
<path d="M19.0052 37.8384C28.851 37.8384 36.8326 29.8568 36.8326 20.011C36.8326 10.1652 28.851 2.18359 19.0052 2.18359C9.15934 2.18359 1.17773 10.1652 1.17773 20.011C1.17773 29.8568 9.15934 37.8384 19.0052 37.8384Z" stroke="#00663C" stroke-width="3" stroke-linecap="round" stroke-linejoin="round"/>
<path d="M10.3613 13.2852H27.6893C27.6893 13.2852 26.7824 30.6174 19.0253 30.6538C11.2682 30.6902 10.3613 13.2852 10.3613 13.2852Z" stroke="#00663C" stroke-width="3" stroke-miterlimit="10"/>
<path d="M36.1721 2.16016C36.1721 2.16016 36.2121 5.86106 36.1721 9.47278C36.1322 13.0845 31.7206 13.0845 31.7206 13.0845H8.01758" stroke="#00663C" stroke-width="2.35454" stroke-linecap="round" stroke-linejoin="round"/>
<path d="M1.88104 2.16016C1.88104 2.16016 1.84108 5.86106 1.88104 9.47278C1.921 13.0845 6.33254 13.0845 6.33254 13.0845H30.0356" stroke="#00663C" stroke-width="2.35454" stroke-linecap="round" stroke-linejoin="round"/>
</g>
<g clip-path="url(#clip1_2217_16099)">
<path d="M48.5017 31.6362C48.1816 31.6362 47.9066 31.5213 47.6767 31.2915C47.4469 31.0616 47.332 30.7866 47.332 30.4665V9.38326C47.332 9.04371 47.4418 8.76355 47.6625 8.54407C47.8833 8.32458 48.1622 8.21484 48.5017 8.21484H62.568C62.9075 8.21484 63.1877 8.31942 63.4072 8.52987C63.6266 8.74031 63.7377 9.01531 63.7377 9.35486C63.7377 9.65439 63.6279 9.91518 63.4072 10.1347C63.1864 10.3541 62.9075 10.4652 62.568 10.4652H49.6715V18.7422H59.0588C59.3984 18.7422 59.6785 18.852 59.898 19.0715C60.1175 19.2922 60.2285 19.5621 60.2285 19.881C60.2285 20.1999 60.1188 20.471 59.898 20.6905C59.6773 20.9099 59.3984 21.021 59.0588 21.021H49.6715V30.4677C49.6715 30.7879 49.5617 31.0629 49.3409 31.2927C49.1202 31.5226 48.8413 31.6375 48.5017 31.6375V31.6362Z" fill="#00663C" stroke="#00663C" stroke-width="0.645536" stroke-miterlimit="10"/>
<path d="M72.1046 31.7872C70.4856 31.7872 69.0499 31.4322 67.8015 30.7221C66.5517 30.012 65.5718 29.0282 64.863 27.7681C64.1529 26.508 63.7979 25.0685 63.7979 23.4495C63.7979 21.8305 64.1322 20.3651 64.8023 19.1153C65.4724 17.8656 66.3968 16.8805 67.5768 16.1614C68.7569 15.4409 70.1164 15.082 71.6553 15.082C73.1943 15.082 74.4995 15.4267 75.6292 16.1162C76.7589 16.8056 77.633 17.761 78.254 18.9798C78.8737 20.1998 79.1835 21.589 79.1835 23.1486C79.1835 23.4688 79.0828 23.7232 78.884 23.913C78.6839 24.1027 78.4244 24.1983 78.1042 24.1983H65.3588V22.2785H78.3444L77.0546 23.208C77.0739 22.0487 76.8648 21.0093 76.4245 20.0888C75.9843 19.1696 75.3594 18.4491 74.5499 17.9288C73.7404 17.4085 72.7747 17.149 71.6553 17.149C70.536 17.149 69.516 17.4189 68.6562 17.9585C67.7963 18.4982 67.1314 19.2432 66.6614 20.1934C66.1915 21.1436 65.9565 22.2281 65.9565 23.4469C65.9565 24.6657 66.2212 25.7463 66.7518 26.6862C67.2812 27.6261 68.0067 28.3659 68.926 28.9055C69.8452 29.4452 70.9052 29.715 72.1046 29.715C72.825 29.715 73.5493 29.5911 74.2788 29.3406C75.0082 29.0914 75.5931 28.7764 76.0333 28.3956C76.2528 28.2161 76.5033 28.1206 76.7834 28.1102C77.0636 28.0999 77.3038 28.1748 77.5039 28.3349C77.7634 28.575 77.8989 28.8345 77.9093 29.1147C77.9196 29.3948 77.8047 29.635 77.5645 29.8351C76.9048 30.3954 76.0656 30.8602 75.0457 31.2295C74.0257 31.6 73.0458 31.7846 72.1059 31.7846L72.1046 31.7872Z" fill="#00663C" stroke="#00663C" stroke-width="0.645536" stroke-miterlimit="10"/>
<path d="M90.5187 31.7872C88.8997 31.7872 87.464 31.4322 86.2155 30.7221C84.9658 30.012 83.9858 29.0282 83.277 27.7681C82.567 26.508 82.2119 25.0685 82.2119 23.4495C82.2119 21.8305 82.5463 20.3651 83.2164 19.1153C83.8864 17.8656 84.8108 16.8805 85.9909 16.1614C87.1709 15.4409 88.5304 15.082 90.0694 15.082C91.6083 15.082 92.9136 15.4267 94.0433 16.1162C95.173 16.8056 96.047 17.761 96.668 18.9798C97.2878 20.1998 97.5976 21.589 97.5976 23.1486C97.5976 23.4688 97.4969 23.7232 97.2981 23.913C97.098 24.1027 96.8385 24.1983 96.5183 24.1983H83.7728V22.2785H96.7584L95.4686 23.208C95.488 22.0487 95.2788 21.0093 94.8386 20.0888C94.3983 19.1696 93.7735 18.4491 92.964 17.9288C92.1545 17.4085 91.1887 17.149 90.0694 17.149C88.95 17.149 87.9301 17.4189 87.0702 17.9585C86.2104 18.4982 85.5455 19.2432 85.0755 20.1934C84.6056 21.1436 84.3706 22.2281 84.3706 23.4469C84.3706 24.6657 84.6353 25.7463 85.1659 26.6862C85.6952 27.6261 86.4208 28.3659 87.34 28.9055C88.2593 29.4452 89.3193 29.715 90.5187 29.715C91.2391 29.715 91.9634 29.5911 92.6928 29.3406C93.4223 29.0914 94.0071 28.7764 94.4474 28.3956C94.6669 28.2161 94.9173 28.1206 95.1975 28.1102C95.4777 28.0999 95.7178 28.1748 95.9179 28.3349C96.1774 28.575 96.313 28.8345 96.3233 29.1147C96.3337 29.3948 96.2187 29.635 95.9786 29.8351C95.3189 30.3954 94.4797 30.8602 93.4597 31.2295C92.4398 31.6 91.4599 31.7846 90.52 31.7846L90.5187 31.7872Z" fill="#00663C" stroke="#00663C" stroke-width="0.645536" stroke-miterlimit="10"/>
<path d="M108.963 31.7872C107.382 31.7872 105.964 31.4231 104.703 30.6924C103.443 29.9629 102.449 28.9675 101.72 27.7087C100.99 26.4486 100.625 25.0194 100.625 23.4198C100.625 21.8202 100.98 20.4206 101.69 19.1605C102.4 17.9005 103.365 16.9063 104.585 16.1769C105.803 15.4474 107.184 15.0821 108.724 15.0821C110.063 15.0821 111.274 15.3674 112.353 15.9367C113.432 16.5061 114.303 17.2614 114.962 18.2013V9.38455C114.962 9.02435 115.072 8.74031 115.293 8.52987C115.512 8.31942 115.793 8.21484 116.132 8.21484C116.472 8.21484 116.752 8.31942 116.971 8.52987C117.191 8.74031 117.302 9.02435 117.302 9.38455V23.5399C117.262 25.0995 116.877 26.5042 116.148 27.7539C115.417 29.0037 114.428 29.9888 113.178 30.7079C111.928 31.4283 110.524 31.7872 108.964 31.7872H108.963ZM108.963 29.6879C110.122 29.6879 111.156 29.4129 112.066 28.8629C112.975 28.313 113.696 27.5693 114.225 26.6281C114.754 25.6882 115.02 24.6192 115.02 23.4185C115.02 22.2178 114.756 21.1746 114.225 20.2244C113.696 19.2755 112.975 18.5305 112.066 17.9895C111.156 17.4499 110.122 17.18 108.963 17.18C107.803 17.18 106.794 17.4499 105.873 17.9895C104.954 18.5292 104.223 19.2742 103.684 20.2244C103.144 21.1746 102.874 22.2385 102.874 23.4185C102.874 24.5985 103.144 25.6882 103.684 26.6281C104.223 27.568 104.953 28.313 105.873 28.8629C106.792 29.4129 107.823 29.6879 108.963 29.6879Z" fill="#00663C" stroke="#00663C" stroke-width="0.645536" stroke-miterlimit="10"/>
<path d="M127.408 31.6375C127.127 31.6375 126.882 31.5471 126.673 31.3676C126.464 31.1882 126.318 30.9584 126.238 30.6782L120.09 9.89453C119.95 9.41425 119.975 9.01531 120.165 8.69512C120.354 8.37494 120.659 8.21484 121.079 8.21484C121.319 8.21484 121.544 8.2794 121.754 8.4098C121.964 8.54019 122.118 8.77517 122.219 9.11472L127.767 28.4291H127.077L132.325 9.62469C132.385 9.40521 132.52 9.22446 132.731 9.08503C132.941 8.94559 133.176 8.87458 133.436 8.87458C133.676 8.87458 133.906 8.93913 134.125 9.06953C134.345 9.19993 134.485 9.39488 134.545 9.65439L139.823 28.4291H139.133L144.712 8.99465C144.851 8.47564 145.232 8.21484 145.852 8.21484C146.271 8.21484 146.562 8.3801 146.722 8.70932C146.882 9.03855 146.901 9.43362 146.781 9.89453L140.663 30.6485C140.562 30.9687 140.409 31.214 140.198 31.3831C139.988 31.5535 139.744 31.6375 139.464 31.6375C139.183 31.6375 138.938 31.5471 138.729 31.3676C138.52 31.1882 138.374 30.9584 138.294 30.6782L133.075 11.6336H133.796L128.607 30.6472C128.506 30.9467 128.353 31.1869 128.142 31.3676C127.932 31.5484 127.688 31.6375 127.408 31.6375Z" fill="#00663C" stroke="#00663C" stroke-width="0.645536" stroke-miterlimit="10"/>
<path d="M150.65 12.114C150.209 12.114 149.83 11.9539 149.51 11.6338C149.189 11.3136 149.029 10.9237 149.029 10.464C149.029 9.9644 149.195 9.56933 149.524 9.27884C149.854 8.98964 150.239 8.84375 150.678 8.84375C151.117 8.84375 151.473 8.98835 151.803 9.27884C152.133 9.56933 152.297 9.9644 152.297 10.464C152.297 10.9237 152.137 11.3136 151.817 11.6338C151.497 11.9539 151.107 12.114 150.647 12.114H150.65ZM150.681 31.6376C150.32 31.6376 150.036 31.533 149.826 31.3226C149.615 31.1121 149.511 30.8281 149.511 30.4679V16.4017C149.511 16.0415 149.615 15.7574 149.826 15.547C150.036 15.3365 150.32 15.232 150.681 15.232C151.02 15.232 151.295 15.3365 151.506 15.547C151.716 15.7574 151.821 16.0415 151.821 16.4017V30.4679C151.821 30.8281 151.716 31.1121 151.506 31.3226C151.295 31.533 151.02 31.6376 150.681 31.6376Z" fill="#00663C" stroke="#00663C" stroke-width="0.645536" stroke-miterlimit="10"/>
<path d="M162.825 31.7859C161.645 31.7859 160.476 31.5858 159.316 31.1855C158.157 30.7853 157.217 30.1862 156.498 29.3858C156.277 29.1456 156.188 28.8758 156.228 28.5763C156.268 28.2767 156.418 28.0172 156.677 27.7965C156.957 27.5964 157.247 27.5163 157.548 27.5563C157.847 27.5964 158.098 27.7268 158.298 27.9462C158.778 28.5066 159.412 28.9365 160.202 29.236C160.992 29.5355 161.866 29.6853 162.827 29.6853C164.306 29.6853 165.377 29.431 166.036 28.921C166.696 28.411 167.036 27.7965 167.056 27.0761C167.056 26.3556 166.717 25.7617 166.036 25.2918C165.356 24.8218 164.237 24.4578 162.677 24.197C160.658 23.8768 159.178 23.3177 158.238 22.5173C157.298 21.7181 156.828 20.7679 156.828 19.6679C156.828 18.6479 157.098 17.7984 157.638 17.118C158.178 16.4389 158.898 15.9289 159.797 15.5881C160.696 15.2485 161.685 15.0781 162.766 15.0781C164.105 15.0781 165.26 15.3079 166.23 15.7676C167.2 16.2272 167.985 16.8469 168.585 17.6267C168.785 17.8862 168.865 18.156 168.825 18.4362C168.785 18.7164 168.625 18.9462 168.345 19.1256C168.105 19.2651 167.83 19.3103 167.52 19.2599C167.21 19.2108 166.945 19.065 166.724 18.8248C166.225 18.2451 165.645 17.8204 164.985 17.5505C164.326 17.2807 163.565 17.1451 162.707 17.1451C161.607 17.1451 160.727 17.3698 160.068 17.8204C159.408 18.2709 159.077 18.8351 159.077 19.5142C159.077 19.9739 159.203 20.3741 159.452 20.7137C159.701 21.0532 160.131 21.354 160.742 21.6135C161.351 21.873 162.206 22.0938 163.306 22.2733C164.805 22.5134 165.99 22.8684 166.86 23.3384C167.73 23.8083 168.35 24.3583 168.719 24.9884C169.088 25.6184 169.274 26.3027 169.274 27.0425C169.274 27.9824 168.999 28.8074 168.449 29.5162C167.899 30.2263 167.14 30.7814 166.171 31.1804C165.201 31.5806 164.087 31.7807 162.827 31.7807L162.825 31.7859Z" fill="#00663C" stroke="#00663C" stroke-width="0.645536" stroke-miterlimit="10"/>
<path d="M180.1 31.7872C178.481 31.7872 177.045 31.4322 175.797 30.7221C174.547 30.012 173.567 29.0282 172.858 27.7681C172.148 26.508 171.793 25.0685 171.793 23.4495C171.793 21.8305 172.127 20.3651 172.797 19.1153C173.467 17.8656 174.392 16.8805 175.572 16.1614C176.752 15.4409 178.111 15.082 179.65 15.082C181.189 15.082 182.495 15.4267 183.624 16.1162C184.754 16.8056 185.628 17.761 186.249 18.9798C186.869 20.1998 187.179 21.589 187.179 23.1486C187.179 23.4688 187.078 23.7232 186.879 23.913C186.679 24.1027 186.42 24.1983 186.099 24.1983H173.354V22.2785H186.339L185.05 23.208C185.069 22.0487 184.86 21.0093 184.42 20.0888C183.979 19.1696 183.355 18.4491 182.545 17.9288C181.736 17.4085 180.77 17.149 179.65 17.149C178.531 17.149 177.511 17.4189 176.651 17.9585C175.791 18.4982 175.127 19.2432 174.657 20.1934C174.187 21.1436 173.952 22.2281 173.952 23.4469C173.952 24.6657 174.216 25.7463 174.747 26.6862C175.276 27.6261 176.002 28.3659 176.921 28.9055C177.84 29.4452 178.9 29.715 180.1 29.715C180.82 29.715 181.544 29.5911 182.274 29.3406C183.003 29.0914 183.588 28.7764 184.028 28.3956C184.248 28.2161 184.498 28.1206 184.779 28.1102C185.059 28.0999 185.299 28.1748 185.499 28.3349C185.758 28.575 185.894 28.8345 185.904 29.1147C185.915 29.3948 185.8 29.635 185.56 29.8351C184.9 30.3954 184.061 30.8602 183.041 31.2295C182.021 31.6 181.041 31.7846 180.101 31.7846L180.1 31.7872Z" fill="#00663C" stroke="#00663C" stroke-width="0.645536" stroke-miterlimit="10"/>
</g>
<defs>
<clipPath id="clip0_2217_16099">
<rect width="38.0094" height="38.0294" fill="white" transform="translate(0 0.984375)"/>
</clipPath>
<clipPath id="clip1_2217_16099">
<rect width="140.491" height="24.2179" fill="white" transform="translate(47.0098 7.89062)"/>
</clipPath>
</defs>
</svg>
